<svg xmlns="http://www.w3.org/2000/svg" width="340" height="96" viewBox="0 0 340 96">
  <g fill="none" fill-rule="evenodd">
    <path fill="#053157" d="M162.340879,20.216 C164.08637,21.1120045 164.959102,22.5399902 164.959102,24.5 C164.959102,25.6760059 164.536812,26.8239944 163.69222,27.944 C162.791321,29.1200059 161.637062,29.708 160.229408,29.708 C159.272204,29.708 158.315013,29.4560025 157.357809,28.952 C154.598807,27.6639936 151.614625,27.02 148.405174,27.02 C144.463743,27.02 141.029119,27.8459917 138.101198,29.498 C135.173278,31.1500083 132.921066,33.473985 131.344493,36.47 C129.767921,39.466015 128.979646,42.8959807 128.979646,46.76 C128.979646,53.368033 130.76734,58.3799829 134.342781,61.796 C137.918222,65.2120171 142.60564,66.92 148.405174,66.92 C151.83985,66.92 154.824031,66.2760064 157.357809,64.988 C158.37132,64.5399978 159.272205,64.316 160.060491,64.316 C161.524451,64.316 162.763168,64.9319938 163.776679,66.164 C164.621271,67.2280053 165.043561,68.3759938 165.043561,69.608 C165.043561,70.5040045 164.81834,71.3159964 164.36789,72.044 C163.917441,72.7720036 163.26993,73.331998 162.425338,73.724 C158.033457,75.9080109 153.360116,77 148.405174,77 C142.88717,77 137.819692,75.8380116 133.202587,73.514 C128.585482,71.1899884 124.897484,67.7600227 122.138482,63.224 C119.37948,58.6879773 118,53.2000322 118,46.76 C118,41.0479714 119.309099,35.9240227 121.927335,31.388 C124.545571,26.8519773 128.163188,23.3100127 132.780293,20.762 C137.397398,18.2139873 142.60564,16.94 148.405174,16.94 C153.416422,16.94 158.061611,18.0319891 162.340879,20.216 Z M180.879589,71.036 C180.879589,72.4920073 180.386918,73.7099951 179.40156,74.69 C178.416202,75.6700049 177.191561,76.16 175.727601,76.16 C174.319947,76.16 173.137536,75.6700049 172.180331,74.69 C171.223126,73.7099951 170.744531,72.4920073 170.744531,71.036 L170.744531,19.124 C170.744531,17.6679927 171.237203,16.4500049 172.22256,15.47 C173.207918,14.4899951 174.432559,14 175.896519,14 C177.304173,14 178.486585,14.4899951 179.443789,15.47 C180.400994,16.4500049 180.879589,17.6679927 180.879589,19.124 L180.879589,71.036 Z M222.644474,31.22 C224.108434,31.22 225.318998,31.7099951 226.276203,32.69 C227.233408,33.6700049 227.712003,34.8879927 227.712003,36.344 L227.712003,57.68 C227.712003,63.7280302 226.03692,68.4599829 222.686703,71.876 C219.336487,75.2920171 214.564612,77 208.370934,77 C202.177256,77 197.419457,75.2920171 194.097394,71.876 C190.775331,68.4599829 189.114324,63.7280302 189.114324,57.68 L189.114324,36.344 C189.114324,34.8879927 189.592919,33.6700049 190.550124,32.69 C191.507328,31.7099951 192.717893,31.22 194.181853,31.22 C195.645813,31.22 196.856377,31.7099951 197.813582,32.69 C198.770787,33.6700049 199.249382,34.8879927 199.249382,36.344 L199.249382,57.68 C199.249382,61.0960171 200.009504,63.6299917 201.52977,65.282 C203.050036,66.9340083 205.330401,67.76 208.370934,67.76 C211.467773,67.76 213.776291,66.9340083 215.296557,65.282 C216.816823,63.6299917 217.576945,61.0960171 217.576945,57.68 L217.576945,36.344 C217.576945,34.8879927 218.05554,33.6700049 219.012745,32.69 C219.96995,31.7099951 221.180514,31.22 222.644474,31.22 Z M270.237017,31.304 C271.588365,31.304 272.714471,31.7379957 273.61537,32.606 C274.516269,33.4740043 274.966711,34.5519936 274.966711,35.84 C274.966711,36.5120034 274.74149,37.351995 274.291041,38.36 L258.497242,72.968 C258.103099,73.9200048 257.525969,74.6759972 256.765836,75.236 C256.005703,75.7960028 255.147047,76.1039997 254.189842,76.16 L253.429713,76.244 C252.472508,76.244 251.585699,75.9500029 250.76926,75.362 C249.952821,74.7739971 249.319386,73.976005 248.868937,72.968 L233.159597,38.36 C232.765454,37.4639955 232.568385,36.5680045 232.568385,35.672 C232.568385,34.5519944 233.04698,33.5300046 234.004185,32.606 C234.96139,31.6819954 236.143801,31.22 237.551455,31.22 C238.621272,31.22 239.606615,31.4999972 240.507514,32.06 C241.408412,32.6200028 242.084076,33.403995 242.534525,34.412 L254.189842,60.956 L265.7607,34.496 C266.211149,33.4319947 266.830508,32.6200028 267.618794,32.06 C268.40708,31.4999972 269.279813,31.2479997 270.237017,31.304 Z M289.366939,71.036 C289.366939,72.4920073 288.888344,73.7099951 287.931139,74.69 C286.973935,75.6700049 285.76337,76.16 284.29941,76.16 C282.83545,76.16 281.624886,75.6700049 280.667681,74.69 C279.710476,73.7099951 279.231881,72.4920073 279.231881,71.036 L279.231881,36.344 C279.231881,34.8879927 279.710476,33.6700049 280.667681,32.69 C281.624886,31.7099951 282.83545,31.22 284.29941,31.22 C285.76337,31.22 286.973935,31.7099951 287.931139,32.69 C288.888344,33.6700049 289.366939,34.8879927 289.366939,36.344 L289.366939,71.036 Z M284.278296,26.6 C281.07143,26.6 278.471752,24.0144444 278.471752,20.825 C278.471752,17.6355556 281.07143,15.05 284.278296,15.05 C287.485161,15.05 290.084839,17.6355556 290.084839,20.825 C290.084839,24.0144444 287.485161,26.6 284.278296,26.6 Z M340,53.732 C340,58.2120224 338.986504,62.2299822 336.959483,65.786 C334.932461,69.3420178 332.159424,72.0999902 328.640289,74.06 C325.121154,76.0200098 321.250164,77 317.027202,77 C312.747934,77 308.862867,76.0200098 305.371885,74.06 C301.880903,72.0999902 299.121943,69.3420178 297.094921,65.786 C295.067899,62.2299822 294.054404,58.2120224 294.054404,53.732 C294.054404,49.2519776 295.067899,45.2340178 297.094921,41.678 C299.121943,38.1219822 301.880903,35.3500099 305.371885,33.362 C308.862867,31.3739901 312.747934,30.38 317.027202,30.38 C321.250164,30.38 325.121154,31.3739901 328.640289,33.362 C332.159424,35.3500099 334.932461,38.1219822 336.959483,41.678 C338.986504,45.2340178 340,49.2519776 340,53.732 Z M329.864942,53.732 C329.864942,50.9879863 329.287813,48.5380108 328.133536,46.382 C326.97926,44.2259892 325.430864,42.5600059 323.488301,41.384 C321.545739,40.2079941 319.392061,39.62 317.027202,39.62 C314.662343,39.62 312.508665,40.2079941 310.566102,41.384 C308.62354,42.5600059 307.075144,44.2259892 305.920867,46.382 C304.766591,48.5380108 304.189462,50.9879863 304.189462,53.732 C304.189462,56.4760137 304.766591,58.9119894 305.920867,61.04 C307.075144,63.1680106 308.62354,64.8199941 310.566102,65.996 C312.508665,67.1720059 314.662343,67.76 317.027202,67.76 C319.392061,67.76 321.545739,67.1720059 323.488301,65.996 C325.430864,64.8199941 326.97926,63.1680106 328.133536,61.04 C329.287813,58.9119894 329.864942,56.4760137 329.864942,53.732 Z"/>
    <path fill="#8FD4FF" d="M47.9728261,20 C63.4283608,20 75.9569746,32.5373134 75.9569746,48 C75.9569746,63.4626866 63.4283608,76 47.9728261,76 C32.5172914,76 19.9886775,63.4626866 19.9886775,48 C19.9886775,32.5373134 32.5172914,20 47.9728261,20 Z M47.9728261,63.9966833 C56.8051168,63.9966833 63.9637681,56.8318174 63.9637681,47.9983416 C63.9637681,39.1619639 56.8051168,32 47.9728261,32 C39.143436,32 31.9818841,39.1619639 31.9818841,47.9983416 C31.9818841,56.8318174 39.143436,63.9966833 47.9728261,63.9966833 Z"/>
    <path fill="#0D74CA" fill-rule="nonzero" d="M12.7181156,55.1054725 C12.8504485,55.8173163 12.9774513,56.412831 13.0991239,56.8920167 C17.0555863,72.4738228 31.1689268,84 47.9728261,84 C50.9473981,84 53.8376616,83.638828 56.6022024,82.9579216 C57.6977744,82.6880822 59.1072973,82.2202959 60.8307708,81.5545627 C62.5235104,80.9006956 64.4423567,81.5349175 65.412012,83.0687618 L67.7972803,86.841888 C68.918715,88.6158238 68.3897584,90.9629854 66.6158226,92.0844201 C66.4343112,92.1991668 66.2433999,92.298321 66.0451389,92.380818 C64.047942,93.211858 62.3977071,93.812375 61.0944341,94.1823689 C56.9240514,95.3663236 52.5223984,96 47.9728261,96 C25.1720604,96 6.08649724,80.0843171 1.20786774,58.7506256 C1.06281137,58.1163105 0.91531427,57.3345555 0.765376456,56.4053604 L0.765365587,56.4053621 C0.431039373,54.3334746 1.83961109,52.382853 3.91149857,52.0485268 C4.11166455,52.0162274 4.31409454,52 4.51684973,52 L8.98211978,51.9999956 C10.8129508,51.9999956 12.3834943,53.3054806 12.7181156,55.1054725 Z"/>
    <path fill="#55B7FB" fill-rule="nonzero" d="M1.28883042,36.9013369 C6.29447026,15.7428155 25.2962232,0 47.9728261,0 C52.8605151,0 57.5774816,0.731363936 62.0203758,2.09068349 C62.9764818,2.38320759 64.1602273,2.81805905 65.5716121,3.39523786 C67.5141337,4.18963027 68.4448839,6.40833421 67.6504983,8.35085854 C67.5717769,8.5433573 67.4773852,8.72906858 67.3682743,8.90612126 L65.0176048,12.7205124 C64.0627534,14.2699362 62.1433641,14.9247726 60.4406165,14.2820395 C59.0257068,13.747956 57.8598291,13.3632074 56.9429834,13.1277936 C54.0754854,12.3915208 51.0698521,12 47.9728261,12 C31.8633814,12 18.2267055,22.5931785 13.6411645,37.1974431 C13.3525458,38.1166506 13.056468,39.358701 12.7529313,40.9235943 C12.4064236,42.7099841 10.8421449,44 9.02245914,44 L4.52390014,44.0000094 C2.42521292,44.0000094 0.72389077,42.2986873 0.72389077,40.2 C0.72389077,39.9965355 0.740231931,39.7933996 0.77275665,39.5925515 C0.947199783,38.5153224 1.11922437,37.6182509 1.28883042,36.9013369 Z"/>
    <path fill="#3499DF" fill-rule="nonzero" d="M83.0664043,15.2729033 C91.0566507,23.8468884 95.9456522,35.352177 95.9456522,48 C95.9456522,60.7220227 90.9991188,72.2880662 82.9254577,80.8776942 C82.2707796,81.574211 81.398037,82.4096037 80.3072299,83.3838722 C78.7419805,84.7818883 76.3397788,84.6463245 74.941759,83.0810784 C74.8022165,82.9248442 74.6758316,82.7573389 74.5638963,82.5802747 L72.1677181,78.7899092 C71.1970447,77.2544544 71.448839,75.2467332 72.7686193,73.998531 C73.9495878,72.8816122 74.8606564,71.9423973 75.5018251,71.1808862 C80.7750488,64.9179206 83.9524457,56.8302309 83.9524457,48 C83.9524457,38.541193 80.3065849,29.9344048 74.3442388,23.5097637 C73.8826935,23.0124321 73.2678788,22.4129227 72.4997947,21.7112356 C71.1524977,20.4804011 70.87037,18.465638 71.8277701,16.9120783 L74.1580995,13.1306765 C75.2591518,11.3440144 77.6001068,10.7882179 79.3867689,11.8892703 C79.5678337,12.0008537 79.739211,12.1274414 79.8990952,12.2676997 C81.2388419,13.4429916 82.2946116,14.4447261 83.0664043,15.2729033 Z"/>
  </g>
</svg>
